<svg width="487" height="67" viewBox="0 0 487 67" fill="none" xmlns="http://www.w3.org/2000/svg">
<path fill-rule="evenodd" clip-rule="evenodd" d="M386.127 26.6833L387.528 29.0858C386.614 29.034 385.816 28.9819 385.135 28.9296L385.128 28.929C383.399 28.7906 381.649 28.4805 379.879 28.0045L379.867 28.0014L379.856 27.9982C378.054 27.4935 376.408 26.6787 375.322 25.3227C374.258 23.9945 373.828 22.3686 373.828 20.657C373.828 17.4483 375.483 14.9353 378.268 13.2026C381.097 11.4207 384.919 10.6726 389.454 10.6726C394.111 10.6726 398.036 11.598 400.849 13.8235C402.932 15.4706 404.308 17.5277 404.837 19.9556H417.106C416.582 14.9171 414.288 11.0007 410.191 8.03721L410.185 8.0332L410.18 8.02917C405.468 4.57861 398.529 2.69763 389.06 2.69763C379.73 2.69763 372.853 4.57533 368.137 8.02917L368.129 8.03453L368.122 8.03984C363.424 11.4241 361.193 15.7032 361.193 21.0359C361.193 26.9153 363.226 31.0463 367.113 33.8262C371.236 36.6636 377.431 38.2375 386.002 38.2375C388.914 38.2375 391.248 38.3006 392.978 38.4332M392.981 38.4335L387.53 29.0859L392.981 38.4335ZM387.53 29.0859C388.876 29.1622 390.473 29.2379 392.318 29.3133L392.366 29.3153H392.413C395.909 29.3153 399.121 29.5901 402.054 30.1297C404.96 30.6641 407.847 31.5568 410.716 32.815L410.743 32.8267L410.77 32.8377C413.439 33.9288 415.497 35.6194 417.007 37.9304L417.014 37.9409L417.021 37.9513C418.497 40.1565 419.294 42.909 419.294 46.3274C419.294 53.2386 416.85 58.1315 412.127 61.4072C407.25 64.7893 399.647 66.6549 388.961 66.6549C378.56 66.6549 371.227 64.5799 366.555 60.8286C362.5 57.4713 360.245 53.3209 359.729 48.2602H372.578C373.13 50.9507 374.662 53.2082 377.012 54.9896C380.056 57.2983 384.138 58.301 388.961 58.301C394.07 58.301 398.276 57.5832 401.279 55.8642C404.474 54.0348 406.165 51.1413 406.165 47.4641C406.165 45.4356 405.566 43.5739 404.185 42.1211C402.861 40.5943 400.9 39.7559 398.712 39.3295C396.722 38.87 394.81 38.5688 392.981 38.4335M387.53 29.0859C387.529 29.0858 387.529 29.0858 387.528 29.0858L392.978 38.4332M387.53 29.0859L386.129 26.6834C386.129 26.6834 386.128 26.6834 386.127 26.6833M453.832 26.6832C453.832 26.6832 453.833 26.6832 453.833 26.6833L455.235 29.0858C455.234 29.0857 455.233 29.0857 455.233 29.0857L453.832 26.6832ZM460.684 38.4332L455.233 29.0857C454.32 29.0339 453.522 28.9819 452.841 28.9296L452.834 28.929C451.105 28.7906 449.355 28.4805 447.585 28.0045L447.574 28.0014L447.562 27.9982C445.761 27.4935 444.114 26.6787 443.028 25.3227C441.965 23.9945 441.535 22.3686 441.535 20.657C441.535 17.4497 443.188 14.9374 445.971 13.2048C448.8 11.4213 452.624 10.6726 457.161 10.6726C461.818 10.6726 465.742 11.598 468.556 13.8235C470.638 15.4706 472.015 17.5277 472.543 19.9556H484.812C484.288 14.9171 481.994 11.0007 477.897 8.03721L477.892 8.0332L477.886 8.02917C473.175 4.57861 466.235 2.69763 456.766 2.69763C447.436 2.69763 440.559 4.57533 435.843 8.02917L435.836 8.03453L435.828 8.03984C431.13 11.4241 428.899 15.7032 428.899 21.0359C428.899 26.9147 430.932 31.0455 434.818 33.8254C438.941 36.6633 445.136 38.2375 453.709 38.2375C456.62 38.2375 458.954 38.3006 460.684 38.4332ZM53.567 27.6283C52.6044 23.3249 50.5273 19.8098 47.2639 17.2433C43.6111 14.2551 38.9861 12.8513 33.5881 12.8513C27.2259 12.8513 21.9677 14.6628 18.1394 18.5556C14.2901 22.4057 12.5091 27.9035 12.4395 34.6524L12.4393 34.6763L12.4395 34.7001C12.5092 41.4567 14.2935 46.9762 18.1317 50.8838L18.1394 50.8916L18.1472 50.8994C21.9784 54.7263 27.2339 56.5013 33.5881 56.5013C39.0403 56.5013 43.7 55.1352 47.3605 52.2054C50.5938 49.6174 52.6322 46.0304 53.5787 41.6295H66.0596C65.0787 49.6287 62.0532 55.5717 57.1526 59.7123C51.7201 64.2393 43.9342 66.6549 33.4895 66.6549C22.2916 66.6549 14.0649 63.8482 8.44919 58.5719C2.86647 53.2642 -0.0622013 45.4346 0.00100177 34.6899C0.0642135 24.0043 3.05348 16.1901 8.65093 10.8711C14.2718 5.52979 22.4347 2.69763 33.4895 2.69763C43.7199 2.69763 51.4498 5.13673 56.9592 9.73818L56.9639 9.74211L56.9686 9.74602C61.9835 13.8894 65.0602 19.7706 66.0538 27.6283H53.567ZM292.35 9.23959L292.363 9.25229L292.377 9.26478C296.019 12.7087 297.965 17.5981 297.965 24.2565C297.965 30.776 296.027 35.5672 292.39 38.9515L292.383 38.9577L292.377 38.9639C288.751 42.3911 283.841 44.2051 277.396 44.2051H259.921C258.219 44.2051 256.839 45.5851 256.839 47.2874V65.5182H245.19V3.83432H277.396C283.821 3.83432 288.721 5.6988 292.35 9.23959ZM460.025 29.3133C458.179 29.2379 456.581 29.1621 455.235 29.0858L460.687 38.4335C462.517 38.5688 464.428 38.87 466.418 39.3295C468.606 39.7559 470.567 40.5941 471.891 42.1206C473.272 43.5734 473.871 45.4354 473.871 47.4641C473.871 51.1414 472.181 54.0348 468.985 55.8642C465.982 57.5832 461.776 58.301 456.667 58.301C451.844 58.301 447.763 57.2983 444.718 54.9896C442.369 53.2082 440.836 50.9507 440.284 48.2602H427.436C427.951 53.3209 430.206 57.4712 434.262 60.8286C438.934 64.5799 446.266 66.6549 456.667 66.6549C467.353 66.6549 474.956 64.7893 479.833 61.4072C484.557 58.1315 487 53.2386 487 46.3274C487 42.909 486.204 40.1565 484.728 37.9513L484.721 37.9409L484.714 37.9304C483.203 35.6193 481.146 33.9288 478.476 32.8377L478.449 32.8267L478.422 32.815C475.553 31.5568 472.667 30.6641 469.761 30.1297C466.827 29.5901 463.616 29.3153 460.119 29.3153H460.072L460.025 29.3133ZM160.625 65.5182H148.976V3.83432H170.181L188.108 46.3065C189.167 48.8156 192.721 48.8188 193.785 46.3117L211.806 3.83432H232.916V65.5182H221.266V22.1813C221.266 18.8055 216.62 17.8857 215.334 21.007L196.992 65.5182H184.899L166.557 21.007C165.271 17.8858 160.625 18.8054 160.625 22.1813V65.5182ZM259.921 35.5671H271.479C275.797 35.5671 279.453 34.7997 282.078 32.9034C284.843 30.9064 286.118 27.9168 286.118 24.3513C286.118 20.7637 284.85 17.7516 282.088 15.735C279.46 13.8172 275.801 13.0407 271.479 13.0407H259.921C258.219 13.0407 256.839 14.4207 256.839 16.123V32.4848C256.839 34.1871 258.219 35.5671 259.921 35.5671ZM307.338 65.5182H294.873L319.094 3.83432H333.3L357.521 65.5182H345.056L341.566 56.2429C341.114 55.0415 339.965 54.246 338.682 54.246H313.712C312.428 54.246 311.279 55.0415 310.827 56.2429L307.338 65.5182ZM318.032 46.4604H334.645C336.804 46.4604 338.294 44.298 337.525 42.2805L329.088 20.1426C328.074 17.4818 324.303 17.5012 323.317 20.1724L315.141 42.3103C314.398 44.323 315.887 46.4604 318.032 46.4604Z" fill="white"/>
<path d="M110.839 18.3199C110.839 19.9812 109.492 21.3279 107.831 21.3279C106.17 21.3279 104.823 19.9812 104.823 18.3199C104.823 16.6587 106.17 15.3119 107.831 15.3119C109.492 15.3119 110.839 16.6587 110.839 18.3199Z" fill="white"/>
<path fill-rule="evenodd" clip-rule="evenodd" d="M116.65 5.46564C112.831 -1.49562 102.831 -1.49563 99.0116 5.46563L93.6174 15.2981C92.6964 16.977 91.3153 18.358 89.6365 19.2791L79.804 24.6733C72.8427 28.4923 72.8427 38.4928 79.8039 42.3119L89.6365 47.7061C91.3153 48.6271 92.6964 50.0082 93.6174 51.687L99.0116 61.5195C102.831 68.4808 112.831 68.4808 116.65 61.5195L122.044 51.687C122.965 50.0082 124.347 48.6271 126.025 47.7061L135.858 42.3119C142.819 38.4928 142.819 28.4923 135.858 24.6733L126.025 19.2791C124.347 18.358 122.965 16.977 122.044 15.2981L116.65 5.46564ZM112.608 12.7056C110.961 8.25415 104.665 8.25415 103.018 12.7056L99.5148 22.173C98.997 23.5725 97.8935 24.676 96.494 25.1938L87.0266 28.6971C82.5751 30.3443 82.5751 36.6403 87.0266 38.2875L96.494 41.7907C97.8935 42.3086 98.997 43.412 99.5148 44.8116L103.018 54.279C104.665 58.7304 110.961 58.7304 112.608 54.279L116.112 44.8116C116.63 43.412 117.733 42.3086 119.133 41.7907L128.6 38.2875C133.051 36.6403 133.051 30.3443 128.6 28.6971L119.133 25.1938C117.733 24.676 116.63 23.5725 116.112 22.173L112.608 12.7056Z" fill="white"/>
</svg>
